<svg xmlns="http://www.w3.org/2000/svg" width="134.24" height="67.654" viewBox="0 0 134.24 67.654">
  <g id="Group_8501" data-name="Group 8501" transform="translate(-659.506 -872.592)">
    <path id="Union_3" data-name="Union 3" d="M22.375,31.009h0L0,0,31.009,22.374h0a6.206,6.206,0,1,1-8.634,8.634Z" transform="matrix(0.998, 0.07, -0.07, 0.998, 701.625, 903.761)" stroke="rgba(0,0,0,0)" stroke-miterlimit="10" stroke-width="1"/>
    <path id="Subtraction_9" data-name="Subtraction 9" d="M11.146,67.12H0A67.6,67.6,0,0,1,1.364,53.593a66.745,66.745,0,0,1,10.1-24A67.319,67.319,0,0,1,40.994,5.274a66.8,66.8,0,0,1,12.6-3.911,67.775,67.775,0,0,1,27.054,0,66.746,66.746,0,0,1,24,10.1,67.312,67.312,0,0,1,24.318,29.531,66.785,66.785,0,0,1,3.911,12.6,67.659,67.659,0,0,1,1.364,13.527h-10.7c-.093-.626-.2-1.262-.3-1.893a75.662,75.662,0,0,0-3.324-12.6,71.583,71.583,0,0,0-5.26-11.4,66.476,66.476,0,0,0-6.967-9.934,60.683,60.683,0,0,0-8.443-8.2,55,55,0,0,0-9.691-6.189A50.755,50.755,0,0,0,78.842,13a49.159,49.159,0,0,0-23,0,50.771,50.771,0,0,0-10.709,3.911A55,55,0,0,0,35.445,23.1,60.64,60.64,0,0,0,27,31.293a66.474,66.474,0,0,0-6.967,9.934,71.591,71.591,0,0,0-5.26,11.4,75.713,75.713,0,0,0-3.324,12.6c-.109.626-.211,1.263-.3,1.893Z" transform="translate(659.506 872.592)" fill="#5bcebc"/>
  </g>
</svg>
