<svg xmlns="http://www.w3.org/2000/svg" width="171.886" height="174.614" viewBox="0 0 171.886 174.614">
  <path id="Union_1" data-name="Union 1" d="M76.358,146.956a59.509,59.509,0,0,1-24.349-9.528,59.957,59.957,0,0,1-21.66-26.3A59.316,59.316,0,0,1,25.99,94.28h17.3a42.226,42.226,0,0,0,41.7,35.377c.15,0,.3,0,.45,0v17.981h0v26.976Zm16.775.193h0V128.876A42.224,42.224,0,0,0,127.24,87.4c0-.271,0-.547-.008-.819h44.654L144.473,97.358a59.531,59.531,0,0,1-9.463,23.921,59.965,59.965,0,0,1-26.3,21.66,59.346,59.346,0,0,1-15.574,4.21Zm-50.4-60.565H0L26.863,75.8a59.554,59.554,0,0,1,9-21.374,59.963,59.963,0,0,1,26.3-21.659,59.357,59.357,0,0,1,15.573-4.21v17.21a42.222,42.222,0,0,0-35,40.816h0Zm101.816-7.7h-18.17A42.22,42.22,0,0,0,85.434,45.152V28.068h0V0L96.349,29.059a59.509,59.509,0,0,1,22.512,9.22,59.941,59.941,0,0,1,21.66,26.3,59.418,59.418,0,0,1,4.035,14.306h0Z" fill="#54563c"/>
</svg>
