<svg xmlns="http://www.w3.org/2000/svg" xmlns:xlink="http://www.w3.org/1999/xlink" width="104.471" height="66.964" viewBox="0 0 104.471 66.964">
  <defs>
    <clipPath id="clip-path">
      <rect id="Rectangle_2966" data-name="Rectangle 2966" width="22.559" height="48.216" fill="#0a0c0a"/>
    </clipPath>
    <clipPath id="clip-path-2">
      <rect id="Rectangle_2967" data-name="Rectangle 2967" width="18.051" height="38.199" fill="#0a0c0a"/>
    </clipPath>
    <clipPath id="clip-path-3">
      <rect id="Rectangle_2969" data-name="Rectangle 2969" width="0.071" height="0.153" fill="#0a0c0a"/>
    </clipPath>
    <clipPath id="clip-path-4">
      <rect id="Rectangle_2970" data-name="Rectangle 2970" width="23.141" height="48.772" fill="#0a0c0a"/>
    </clipPath>
  </defs>
  <g id="Group_8249" data-name="Group 8249" transform="translate(-432.025 300.51)">
    <path id="Path_6873" data-name="Path 6873" d="M358.136,250.334l-.035-.074-.017.037.054.115.053-.11-.02-.043Z" transform="translate(126.622 -512.571)" fill="#0a0c0a"/>
    <g id="Group_8233" data-name="Group 8233" transform="translate(484.813 -289.29)" opacity="0.8">
      <g id="Group_8232" data-name="Group 8232">
        <g id="Group_8231" data-name="Group 8231" clip-path="url(#clip-path)">
          <path id="Path_6874" data-name="Path 6874" d="M366.169,116.9l2.178,4.829,10.689-21.892,2.221-4.581h.016l.074-.151-9.491-21.592-13.069,27.022,3.135,6.951Z" transform="translate(-358.787 -73.509)" fill="#0a0c0a"/>
        </g>
      </g>
    </g>
    <g id="Group_8236" data-name="Group 8236" transform="translate(475.796 -300.51)" opacity="0.5">
      <g id="Group_8235" data-name="Group 8235">
        <g id="Group_8234" data-name="Group 8234" clip-path="url(#clip-path-2)">
          <path id="Path_6875" data-name="Path 6875" d="M308.767,38.666l-.091-.546v.309l9.089-18.868L308.732,0l-9.018,19.316,7.343,15.595Z" transform="translate(-299.714 0)" fill="#0a0c0a"/>
        </g>
      </g>
    </g>
    <path id="Path_6876" data-name="Path 6876" d="M358.195,249.822l.035.074.036-.074-.036-.079Z" transform="translate(126.528 -512.133)" fill="#0a0c0a"/>
    <g id="Group_8241" data-name="Group 8241" transform="translate(484.722 -262.39)" opacity="0.5">
      <g id="Group_8240" data-name="Group 8240">
        <g id="Group_8239" data-name="Group 8239" clip-path="url(#clip-path-3)">
          <path id="Path_6877" data-name="Path 6877" d="M358.194,249.822l.036.074.036-.074-.036-.079Z" transform="translate(-358.194 -249.744)" fill="#0a0c0a"/>
        </g>
      </g>
    </g>
    <g id="Group_8244" data-name="Group 8244" transform="translate(461.564 -289.29)" opacity="0.8">
      <g id="Group_8243" data-name="Group 8243">
        <g id="Group_8242" data-name="Group 8242" clip-path="url(#clip-path-4)">
          <path id="Path_6878" data-name="Path 6878" d="M226.363,107.756l3.3-7.18L228.051,97.2l-7.343-15.595-3.812-8.1L206.476,95.124l13.349,27.157v1.879l2.689-6.639Z" transform="translate(-206.476 -73.51)" fill="#0a0c0a"/>
        </g>
      </g>
    </g>
    <path id="Path_6879" data-name="Path 6879" d="M493.668,215.958l-2.221,4.581,2.237-4.581Z" transform="translate(13.615 -483.505)" fill="#0a0c0a"/>
    <path id="Subtraction_1" data-name="Subtraction 1" d="M104.471,47.651H0L22.854.176l.067-.161.005.01L22.939,0l6.644,13.517,0,.009L42.945,40.65l2.375-5.278,3.7,7.5.057.116h7.409l.057-.116,3.674-7.578,1.737,3.851L81.609.762,81.981,0l.009.018Z" transform="translate(432.025 -281.197)" fill="#0a0c0a"/>
    <path id="Path_6884" data-name="Path 6884" d="M509.273,289.488h6.745l-3.371-7.212Z" transform="translate(-1.49 -539.701)" fill="#0a0c0a"/>
    <path id="Path_6885" data-name="Path 6885" d="M168.076,289.486l-3.372-7.212-3.373,7.212Z" transform="translate(293.343 -539.699)" fill="#0a0c0a"/>
    <path id="Path_6886" data-name="Path 6886" d="M341.972,257.43l-3.135-6.951-.052-.105-.055.1-3.254,7.23-4.126,9.258,3.815,7.656h7.373l3.784-7.685Z" transform="translate(145.981 -512.747)" fill="#0a0c0a"/>
  </g>
</svg>
